/vscmnt/brussel_pixiu_data/_data_brussel/112/vsc11236/PredSimResults/SUBJ07_gait1422_tracking/SUBJ07_gait1422_11417571.mot
version=1
nRows=4
nColumns=50
inDegrees=yes
endheader
                time	         pelvis_tilt	         pelvis_list	     pelvis_rotation	           pelvis_tx	           pelvis_ty	           pelvis_tz	       hip_flexion_r	     hip_adduction_r	      hip_rotation_r	        knee_angle_r	       ankle_angle_r	         mtp_angle_r	       hip_flexion_l	     hip_adduction_l	      hip_rotation_l	        knee_angle_l	       ankle_angle_l	         mtp_angle_l	    lumbar_extension	      lumbar_bending	     lumbar_rotation	 ercspn_r/activation	 intobl_r/activation	 extobl_r/activation	    abd_r/activation	    add_r/activation	hamstrings_r/activation	bifemsh_r/activation	glut_max_r/activation	iliopsoas_r/activation	rect_fem_r/activation	  vasti_r/activation	gastroc_r/activation	 soleus_r/activation	tib_ant_r/activation	 ercspn_l/activation	 intobl_l/activation	 extobl_l/activation	    abd_l/activation	    add_l/activation	hamstrings_l/activation	bifemsh_l/activation	glut_max_l/activation	iliopsoas_l/activation	rect_fem_l/activation	  vasti_l/activation	gastroc_l/activation	 soleus_l/activation	tib_ant_l/activation	
          1.56774857	         -0.12809921	         -1.81500640	         -6.02698975	          1.90465678	          0.84402485	         -0.00188454	        -13.39204189	          3.67842801	         -1.39004094	        -16.79164566	         17.15064673	         23.04649875	         31.30511459	         -2.99314878	        -11.51624280	        -14.60961137	         -5.28991793	          0.28978406	         -5.38400915	          2.15892997	         11.48348357	          0.01174184	          0.01174862	          0.01774567	          0.03194991	          0.01000143	          0.01000118	          0.01618849	          0.01000443	          0.16337111	          0.31247221	          0.07623055	          0.44038776	          0.53919195	          0.03210202	          0.03881255	          0.07869245	          0.07124916	          0.01618901	          0.05050793	          0.04580914	          0.38505298	          0.06969099	          0.05512987	          0.01000059	          0.01000021	          0.01378752	          0.01378699	          0.08053252	
          1.57820023	          0.04265634	         -1.18562416	         -6.30140639	          1.91963273	          0.84380776	         -0.00201608	        -13.85848239	          2.76579759	         -1.41505367	        -17.90412387	         15.81537189	         25.39497975	         30.46898022	         -2.23641514	        -10.90214928	        -15.03872417	         -6.46842026	          0.23315001	         -5.36528810	          1.27921952	         11.56929928	          0.01000085	          0.01000611	          0.01511338	          0.02721022	          0.01002508	          0.01378765	          0.01378972	          0.01173988	          0.16106515	          0.26611666	          0.06492160	          0.44650491	          0.57342961	          0.02733962	          0.03305476	          0.06702181	          0.08770621	          0.01378738	          0.04301637	          0.03901331	          0.34488476	          0.05935226	          0.04695145	          0.01000031	          0.01000249	          0.01174216	          0.01174172	          0.15336274	
          1.58865189	          0.16634625	         -0.57395690	         -6.55170651	          1.93519614	          0.84380292	         -0.00214876	        -14.38371237	          1.87582670	         -1.33568693	        -18.82157474	         14.15788884	         27.83824391	         29.56580477	         -1.42864694	        -10.18176344	        -15.64451776	         -5.93098487	          0.19788788	         -5.21290167	          0.40843631	         11.59690632	          0.01000108	          0.01000153	          0.04089320	          0.02317373	          0.01000738	          0.01174234	          0.01174419	          0.01000083	          0.14212500	          0.22923794	          0.05529037	          0.42749995	          0.53893333	          0.02328373	          0.02815111	          0.18056183	          0.11937311	          0.01174203	          0.03663490	          0.03322563	          0.29441759	          0.05054726	          0.15195715	          0.02774558	          0.01000011	          0.01000022	          0.01000002	          0.17775457	
          1.59910354	          0.23442827	          0.13363107	         -6.73388597	          1.95099580	          0.84403519	         -0.00233378	        -14.82303612	          0.90829617	         -1.18408617	        -19.75142649	         12.27822079	         30.31406572	         28.81432944	         -0.46211084	         -9.28685920	        -16.42479434	         -5.31779530	          0.20995684	         -4.96301827	         -0.59625219	         11.53887068	          0.01000014	          0.01000312	          0.04368165	          0.02256203	          0.01000048	          0.01000084	          0.01000229	          0.01000990	          0.16514931	          0.19523008	          0.04708794	          0.39921692	          0.45898153	          0.01982954	          0.02397492	          0.15377561	          0.10166420	          0.01000017	          0.03120018	          0.02829661	          0.25074083	          0.04304854	          0.12941406	          0.02362964	          0.01172794	          0.02113768	          0.01000177	          0.15138443	
